HIERARCHY
ROOT Model_Hips
{
	OFFSET 0.000000 96.915077 0.000000
	CHANNELS 6 Xposition Yposition Zposition Xrotation Yrotation Zrotation
	JOINT Model_Spine
	{
		OFFSET 0.000000 11.137703 -1.289900
		CHANNELS 3 Xrotation Yrotation Zrotation
		JOINT Model_Spine1
		{
			OFFSET 0.000000 12.993942 -1.504922
			CHANNELS 3 Xrotation Yrotation Zrotation
			JOINT Model_Spine2
			{
				OFFSET 0.000000 14.850220 -1.719911
				CHANNELS 3 Xrotation Yrotation Zrotation
				JOINT Model_Neck
				{
					OFFSET 0.000000 16.706543 -1.934903
					CHANNELS 3 Xrotation Yrotation Zrotation
					JOINT Model_Head
					{
						OFFSET 0.000000 10.471298 2.002100
						CHANNELS 3 Xrotation Yrotation Zrotation
						JOINT Model_HeadTop_End
						{
							OFFSET 0.000000 20.842606 3.985100
							CHANNELS 3 Xrotation Yrotation Zrotation
							End Site
							{
								OFFSET 0.000000 21.220154 0.000000
							}
						}
					}
				}
				JOINT Model_LeftShoulder
				{
					OFFSET 7.008500 14.768600 -1.919946
					CHANNELS 3 Xrotation Yrotation Zrotation
					JOINT Model_LeftArm
					{
						OFFSET 14.126271 -3.718048 0.029937
						CHANNELS 3 Xrotation Yrotation Zrotation
						JOINT Model_LeftForeArm
						{
							OFFSET 28.282801 0.000000 0.000000
							CHANNELS 3 Xrotation Yrotation Zrotation
							JOINT Model_LeftHand
							{
								OFFSET 26.204689 0.000000 0.000000
								CHANNELS 3 Xrotation Yrotation Zrotation
								End Site
								{
									OFFSET 26.204704 0.000000 0.000000
								}
							}
						}
					}
				}
				JOINT Model_RightShoulder
				{
					OFFSET -7.008500 14.768555 -1.949840
					CHANNELS 3 Xrotation Yrotation Zrotation
					JOINT Model_RightArm
					{
						OFFSET -14.126281 -3.718018 -0.029932
						CHANNELS 3 Xrotation Yrotation Zrotation
						JOINT Model_RightForeArm
						{
							OFFSET -28.283798 0.000000 -0.000001
							CHANNELS 3 Xrotation Yrotation Zrotation
							JOINT Model_RightHand
							{
								OFFSET -26.204193 0.000000 -0.000001
								CHANNELS 3 Xrotation Yrotation Zrotation
								End Site
								{
									OFFSET -26.204208 0.000000 -0.000001
								}
							}
						}
					}
				}
			}
		}
	}
	JOINT Model_LeftUpLeg
	{
		OFFSET 8.327700 -6.193199 -0.402800
		CHANNELS 3 Xrotation Yrotation Zrotation
		JOINT Model_LeftLeg
		{
			OFFSET 0.735802 -42.108742 -0.610721
			CHANNELS 3 Xrotation Yrotation Zrotation
			JOINT Model_LeftFoot
			{
				OFFSET -0.735806 -36.833748 -0.172876
				CHANNELS 3 Xrotation Yrotation Zrotation
				JOINT Model_LeftToeBase
				{
					OFFSET -0.565857 -11.977769 16.297714
					CHANNELS 3 Xrotation Yrotation Zrotation
					JOINT Model_LeftToe_End
					{
						OFFSET -0.111712 -0.312793 7.857784
						CHANNELS 3 Xrotation Yrotation Zrotation
						End Site
						{
							OFFSET -0.111712 -0.312793 7.857784
						}
					}
				}
			}
		}
	}
	JOINT Model_RightUpLeg
	{
		OFFSET -8.327700 -6.193199 -0.516500
		CHANNELS 3 Xrotation Yrotation Zrotation
		JOINT Model_RightLeg
		{
			OFFSET -0.735785 -42.108738 -0.434061
			CHANNELS 3 Xrotation Yrotation Zrotation
			JOINT Model_RightFoot
			{
				OFFSET 0.735776 -36.833748 -0.021630
				CHANNELS 3 Xrotation Yrotation Zrotation
				JOINT Model_RightToeBase
				{
					OFFSET 0.565817 -11.977745 15.903093
					CHANNELS 3 Xrotation Yrotation Zrotation
					JOINT Model_RightToe_End
					{
						OFFSET 0.111702 -0.312791 7.811342
						CHANNELS 3 Xrotation Yrotation Zrotation
						End Site
						{
							OFFSET 0.111702 -0.312791 7.811342
						}
					}
				}
			}
		}
	}
}
MOTION
Frames: 15
Frame Time: 0.016667
0.244185 96.494110 0.265634 -4.310862 2.834631 -1.242829 6.327383 2.214858 -0.061139 0.584418 0.628572 0.173313 0.586623 0.622349 0.171086 -1.352828 0.196531 0.604556 -1.354429 0.199170 0.604061 0.000000 -0.000000 0.000000 0.615813 -3.124616 -19.144406 0.537379 -8.872077 -61.175532 -0.000005 -6.440771 0.000002 0.000002 -0.000000 0.000000 0.755450 0.949797 17.299875 -0.734535 9.495166 56.496535 0.000032 13.104460 0.000014 -0.000000 -0.000001 -0.000000 -25.108172 5.582687 0.809243 61.821026 -0.190548 -1.195645 1.131489 0.004166 0.893884 -10.767127 -0.663084 4.445000 -0.000001 -0.000000 -0.000000 -1.562193 -11.173452 -4.477232 14.631076 4.178206 1.525851 -8.864129 -0.296290 1.875744 -0.363920 -0.000000 0.000001 0.000000 -0.000000 0.000000 
0.141363 96.587646 2.181515 -4.055716 2.850453 -0.968418 6.283070 3.004486 -0.513965 0.602009 0.857611 0.094568 0.604727 0.851683 0.090821 -1.367261 0.141605 0.604555 -1.369276 0.143611 0.591074 0.000000 0.000001 -0.000000 0.649955 -2.700813 -18.995765 1.954051 -8.396895 -61.678008 -0.000007 -6.727062 -0.000008 0.000001 0.000000 -0.000001 0.728696 1.318740 17.185243 -1.557583 10.772955 55.948911 0.000009 14.203265 0.000011 -0.000001 -0.000000 0.000001 -26.796369 5.627427 0.468175 57.886823 0.590375 -1.450445 0.301809 -0.007859 0.930144 -6.372085 -0.302990 4.232164 -0.000001 0.000000 0.000000 -0.458724 -11.390321 -4.530529 14.567045 4.241451 1.461485 -10.054056 -0.242085 1.356381 -0.467469 0.000001 0.000001 0.000000 0.000000 0.000000 
0.052758 96.585152 4.075317 -3.701531 2.968834 -0.716954 6.190675 3.648904 -0.939385 0.594966 1.045813 0.007734 0.597663 1.040594 0.002839 -1.383000 0.093267 0.604555 -1.385375 0.095026 0.594511 0.000000 -0.000002 -0.000000 0.682401 -2.279994 -18.810952 3.490311 -7.762472 -62.100695 -0.000003 -7.089301 -0.000018 -0.000001 0.000000 -0.000000 0.704477 1.686909 17.179191 -2.167298 12.100374 55.230631 0.000019 15.494231 0.000003 0.000002 -0.000000 -0.000001 -28.222620 5.478875 0.081749 53.248011 1.848165 -1.552442 -0.468030 -0.021113 0.965019 -2.751332 -0.025020 1.215902 0.000000 -0.000001 0.000001 0.495124 -11.532015 -4.536972 14.661676 4.136884 1.324154 -11.438199 -0.187665 0.943252 -0.552643 0.000000 -0.000001 0.000001 0.000001 0.000000 
-0.008705 96.496323 5.964392 -3.311398 3.201370 -0.440597 6.082615 4.186943 -1.385976 0.580591 1.206230 -0.082484 0.582854 1.201839 -0.088252 -1.398448 0.046945 0.604555 -1.401132 0.048435 0.598217 0.000000 -0.000000 -0.000000 0.708291 -1.937268 -18.697957 5.095770 -7.009486 -62.406072 0.000003 -7.483219 -0.000013 -0.000001 0.000000 -0.000000 0.685621 1.984728 17.232955 -2.632582 13.422043 54.342221 0.000003 16.927615 0.000005 0.000002 0.000001 0.000000 -29.227500 5.179224 -0.401893 47.755504 3.468935 -1.509995 -0.753496 -0.035318 1.056441 -0.861189 0.000003 -0.000000 0.000001 -0.000000 0.000001 1.433700 -11.703203 -4.563916 14.773305 3.900348 1.169244 -12.991039 -0.128985 0.578831 -0.492584 -0.000002 0.000001 0.000000 -0.000001 -0.000000 
-0.038814 96.325554 7.866371 -2.956464 3.538800 -0.149836 6.000140 4.653917 -1.848556 0.581607 1.348783 -0.166794 0.583249 1.344968 -0.173499 -1.416972 -0.002089 0.597870 -1.419819 -0.001162 0.591080 0.000000 -0.000001 -0.000000 0.729048 -1.675184 -18.702950 6.646385 -6.196608 -62.607925 -0.000005 -7.828701 0.000001 -0.000001 -0.000000 -0.000000 0.674722 2.162585 17.312158 -3.147726 14.682279 53.337432 -0.000004 18.353763 -0.000002 0.000001 -0.000001 -0.000000 -29.681427 4.794896 -0.935161 41.308475 5.332946 -1.337869 -0.376284 -0.040997 1.096793 -0.613412 0.000013 0.000001 0.000001 0.000000 -0.000000 2.379596 -11.981953 -4.681377 14.969946 3.639440 1.080916 -14.592026 -0.085303 0.414476 -0.522109 -0.000001 0.000002 0.000000 -0.000000 0.000000 
-0.039218 96.072014 9.794777 -2.674948 3.959239 0.095069 5.960613 5.061248 -2.267323 0.603904 1.474355 -0.236723 0.604964 1.470701 -0.244601 -1.435674 -0.055411 0.582961 -1.438558 -0.055241 0.575820 0.000000 0.000001 -0.000000 0.747729 -1.455295 -18.777252 8.067127 -5.338851 -62.774930 0.000004 -8.068823 0.000009 0.000000 -0.000000 -0.000001 0.671763 2.222323 17.408743 -3.840095 15.853366 52.302197 0.000020 19.610189 -0.000035 0.000003 -0.000000 -0.000000 -29.475876 4.386373 -1.435378 33.775248 7.156585 -1.058284 0.629706 -0.038555 1.092791 -0.634358 0.000009 -0.000002 0.000000 0.000000 0.000000 3.351966 -12.376604 -4.853492 15.319250 3.417680 1.106758 -16.211609 -0.065888 0.431982 -0.612969 -0.000001 -0.000001 0.000000 -0.000000 0.000000 
-0.010953 95.732903 11.763561 -2.460929 4.440880 0.217336 5.943423 5.409040 -2.562909 0.636923 1.580217 -0.281918 0.637675 1.576337 -0.291076 -1.454082 -0.109047 0.565386 -1.456902 -0.109612 0.557967 -0.000000 0.000000 -0.000000 0.765955 -1.246746 -18.859947 9.334621 -4.389634 -62.972418 -0.000003 -8.173713 0.000009 -0.000002 -0.000000 -0.000000 0.674958 2.191826 17.508071 -4.705735 16.908704 51.312913 -0.000000 20.617056 -0.000000 0.000002 -0.000000 -0.000000 -28.444656 4.020031 -1.828123 24.840344 8.560642 -0.732275 2.266108 -0.034192 1.173311 -0.392796 -0.000001 -0.000000 -0.000000 -0.000001 0.000000 4.449029 -12.832742 -4.934782 15.714797 3.197953 1.231283 -17.905124 -0.055069 0.407834 -0.808538 0.000003 0.000001 0.000000 -0.000000 0.000000 
0.042230 95.039490 13.905607 -2.277844 4.958042 0.153140 5.681378 5.708085 -2.686392 0.764543 1.667362 -0.277813 0.764980 1.663712 -0.285293 -1.478442 -0.156016 0.547312 -1.481118 -0.157292 0.539607 0.000000 -0.000000 0.000000 0.785220 -1.024731 -18.925283 10.388422 -3.243041 -63.226754 -0.000007 -8.082986 -0.000009 0.000000 0.000000 0.000000 0.682021 2.102778 17.586882 -5.683858 17.801237 50.419671 0.000005 21.379436 0.000002 -0.000001 -0.000001 0.000000 -27.607444 3.835396 -1.986988 16.708798 8.912052 -0.419030 3.264879 0.405790 1.051652 0.266620 -0.000012 -0.000004 -0.000001 0.000002 0.000001 4.710738 -13.174766 -5.064645 18.431697 2.989213 1.402951 -21.022820 -0.048014 0.278081 -1.178446 0.000002 0.000001 0.000000 0.000000 0.000000 
0.136369 93.758057 16.396303 -2.094080 5.473148 -0.104928 4.789922 5.980409 -2.635827 1.144094 1.741790 -0.208323 1.143329 1.740235 -0.205522 -1.512278 -0.193641 0.534578 -1.514849 -0.195517 0.526502 -0.000000 -0.000000 0.000000 0.806318 -0.765772 -18.930334 11.159804 -1.798419 -63.557977 0.000002 -7.709506 0.000005 -0.000001 -0.000000 0.000000 0.689840 2.000391 17.643516 -6.702506 18.475887 49.653173 0.000007 21.933648 -0.000001 -0.000000 0.000001 -0.000000 -30.337006 3.955853 -1.670243 16.693667 8.596433 -0.203693 -0.210215 1.019418 -0.259855 0.995430 -0.000001 -0.000004 -0.000001 0.000001 0.000000 4.101987 -13.310970 -5.283033 23.856613 2.830286 1.563030 -25.901143 -0.087251 0.201196 -1.769797 -0.000001 -0.000001 0.000000 0.000001 0.000000 
0.290141 92.815948 18.835661 -1.912105 5.950113 -0.473014 4.082442 6.213182 -2.454811 1.388223 1.803450 -0.147801 1.387199 1.802866 -0.137107 -1.549615 -0.226258 0.538535 -1.552195 -0.228418 0.530058 -0.000000 -0.000001 0.000000 0.827228 -0.467100 -18.803999 11.685275 -0.080401 -63.989795 -0.000015 -7.032008 -0.000002 0.000001 -0.000001 -0.000000 0.695299 1.935128 17.708826 -7.691327 18.891856 49.025004 0.000008 22.313072 -0.000001 -0.000001 0.000000 0.000001 -32.811406 4.097907 -1.232653 16.743336 8.140020 -0.015312 -3.744235 1.632288 -2.470002 1.365486 0.000000 -0.000008 -0.000002 -0.000002 0.000000 4.900829 -13.424690 -5.159013 26.047773 2.847513 1.639942 -28.278506 -0.407809 1.144790 -2.637960 -0.000003 -0.000001 0.000000 0.000001 0.000000 
0.507135 92.163277 21.187004 -1.757794 6.354105 -0.828912 3.679844 6.440162 -2.262647 1.460430 1.864875 -0.117301 1.459735 1.864406 -0.102681 -1.577069 -0.260097 0.563413 -1.579835 -0.262121 0.554578 0.000000 -0.000002 0.000000 0.844445 -0.159889 -18.548728 12.098503 1.739032 -64.486992 0.000004 -6.155185 -0.000013 -0.000003 0.000001 0.000000 0.698107 1.917849 17.820413 -8.617639 19.038222 48.525140 0.000007 22.534947 0.000003 0.000000 0.000002 -0.000002 -34.935588 4.013658 -0.956751 16.925605 7.593645 0.412958 -7.105254 2.493902 -5.408840 1.297866 -0.000010 0.000002 0.000001 0.000001 -0.000001 6.440432 -13.579669 -4.951851 26.370667 3.079638 1.699704 -29.150448 -0.847023 2.394611 -3.870278 0.000005 0.000001 0.000000 0.000000 0.000000 
0.793815 91.708939 23.461229 -1.642202 6.653915 -1.087218 3.564199 6.710967 -2.141717 1.396376 1.939989 -0.116371 1.396098 1.939428 -0.101310 -1.595642 -0.296644 0.595955 -1.598725 -0.298278 0.586757 -0.000000 0.000000 0.000000 0.857403 0.112634 -18.284415 12.503944 3.472498 -64.934287 -0.000011 -5.249070 -0.000004 -0.000002 0.000000 -0.000000 0.700074 1.921240 17.977833 -9.486881 18.930643 48.148739 0.000005 22.615209 -0.000000 0.000001 -0.000002 -0.000001 -36.474296 3.571130 -1.108251 17.140489 7.124960 1.231773 -9.941627 3.717657 -8.143720 1.107584 -0.000004 -0.000007 0.000000 -0.000001 -0.000002 8.209370 -13.863413 -4.943262 25.857409 3.662850 1.835738 -29.044024 -1.295741 3.693668 -6.003577 0.000000 0.000001 0.000000 0.000000 0.000000 
1.150078 91.349937 25.714382 -1.548701 6.839865 -1.231966 3.595551 7.030639 -2.108860 1.287824 2.030617 -0.125342 1.287690 2.029950 -0.112980 -1.619841 -0.330181 0.621343 -1.623270 -0.331360 0.611688 -0.000000 -0.000000 -0.000000 0.869903 0.348677 -18.123635 12.902773 5.044695 -65.245102 0.000001 -4.438981 -0.000005 0.000003 -0.000000 -0.000000 0.701199 1.936734 18.137653 -10.286261 18.608084 47.911906 0.000006 22.596959 -0.000008 -0.000002 0.000003 -0.000000 -37.193631 3.002248 -1.611148 17.295504 6.818255 2.109487 -11.790298 5.164587 -9.682025 0.980158 0.000005 0.000003 -0.000001 0.000001 0.000000 9.943978 -14.304564 -5.151718 25.199440 4.533564 2.049823 -28.612415 -1.592843 4.494035 -9.132120 0.000001 -0.000001 0.000000 0.000000 0.000000 
1.567064 91.033577 28.001659 -1.467551 6.936122 -1.279173 3.664376 7.344601 -2.156686 1.202590 2.121047 -0.136679 1.201953 2.121008 -0.121779 -1.663806 -0.352040 0.641468 -1.667572 -0.352802 0.631214 -0.000000 0.000001 0.000000 0.886550 0.600577 -18.064978 13.253651 6.431286 -65.448935 -0.000009 -3.789077 -0.000001 0.000001 -0.000000 -0.000000 0.699396 1.982446 18.251876 -10.961595 18.134852 47.827341 0.000002 22.551046 0.000006 0.000003 0.000001 0.000001 -36.983077 2.803771 -2.047146 17.314022 6.591758 2.329541 -12.134916 6.288943 -9.655519 0.697897 0.000012 -0.000003 -0.000001 -0.000002 -0.000001 11.586287 -14.816221 -5.450527 24.687031 5.505687 2.224181 -28.165018 -1.711496 4.635482 -12.005207 -0.000002 0.000001 0.000001 0.000000 0.000000 
2.034477 90.761520 30.360662 -1.434459 6.987667 -1.223264 3.776155 7.613700 -2.309678 1.139816 2.201774 -0.145814 1.138562 2.202077 -0.130732 -1.730075 -0.359819 0.666140 -1.734160 -0.360501 0.655101 -0.000000 -0.000000 -0.000000 0.907603 0.890332 -18.057014 13.563569 7.511500 -65.625598 0.000012 -3.365621 0.000005 0.000001 0.000002 0.000000 0.695914 2.038232 18.300995 -11.448724 17.583601 47.867400 0.000021 22.542018 -0.000005 0.000003 0.000001 -0.000002 -37.008967 3.280809 -2.249094 19.200290 6.088898 1.531561 -11.711655 6.294114 -7.162252 -0.024019 -0.000002 0.000001 0.000003 -0.000001 0.000001 13.128237 -15.254831 -5.819132 24.397417 6.434149 2.205011 -27.347072 -1.855680 4.904711 -15.627435 0.000001 0.000002 0.000000 0.000000 0.000000 
